<svg xmlns="http://www.w3.org/2000/svg" viewBox="0 0 32 32" id="msi-afterburner"><path fill="#7EC94F" d="m18.293 15.707 1 1a.995.995 0 0 0 .95.263l2.696-.674L20.4 18.2c-.146.11-.26.258-.329.428L19 21.308V19a.997.997 0 0 0-.293-.707l-1-1a.998.998 0 0 0-1.331-.074l-4.174 3.339 1.748-5.242a.999.999 0 0 0-.242-1.023L9.173 9.758l5.323 3.105c.291.17.648.181.951.031l5.214-2.607-2.519 4.198a1 1 0 0 0 .151 1.222zM17 27c-6.065 0-11-4.935-11-11 0-1.9.485-3.689 1.336-5.25l4.52 4.52-1.805 5.414a.999.999 0 0 0 .242 1.023l1 1a1 1 0 0 0 1.332.074l4.301-3.441.074.074V23c0 .265.105.52.293.707l1 1a1 1 0 0 0 1.636-.336l1.896-4.74L25.6 16.8a.998.998 0 0 0 .106-1.507l-1-1a.999.999 0 0 0-.95-.263l-3.451.863-.047-.047 2.598-4.331a1.001 1.001 0 0 0-.15-1.222l-1-1a1.003 1.003 0 0 0-1.154-.188l-5.516 2.758-5.307-3.095A10.94 10.94 0 0 1 17 5c6.065 0 11 4.935 11 11s-4.935 11-11 11z"></path><path fill="#133906" d="M17 3c-3.531 0-6.734 1.42-9.079 3.713L3.504 4.136a1 1 0 0 0-1.211 1.571l3.59 3.59A12.896 12.896 0 0 0 4 16c0 7.168 5.832 13 13 13s13-5.832 13-13S24.168 3 17 3zm1.293 12.707 1 1a.995.995 0 0 0 .95.263l2.696-.674L20.4 18.2c-.146.11-.26.258-.329.428L19 21.308V19a.997.997 0 0 0-.293-.707l-1-1a.998.998 0 0 0-1.331-.074l-4.174 3.339 1.748-5.242a.999.999 0 0 0-.242-1.023L9.173 9.758l5.323 3.105c.291.17.648.181.951.031l5.214-2.607-2.519 4.198a1 1 0 0 0 .151 1.222zM17 27c-6.065 0-11-4.935-11-11 0-1.9.485-3.689 1.336-5.25l4.52 4.52-1.805 5.414a.999.999 0 0 0 .242 1.023l1 1a1 1 0 0 0 1.332.074l4.301-3.441.074.074V23c0 .265.105.52.293.707l1 1a1 1 0 0 0 1.636-.336l1.896-4.74L25.6 16.8a.998.998 0 0 0 .106-1.507l-1-1a.999.999 0 0 0-.95-.263l-3.451.863-.047-.047 2.598-4.331a1.001 1.001 0 0 0-.15-1.222l-1-1a1.003 1.003 0 0 0-1.154-.188l-5.516 2.758-5.307-3.095A10.94 10.94 0 0 1 17 5c6.065 0 11 4.935 11 11s-4.935 11-11 11z"></path></svg>