<svg xmlns="http://www.w3.org/2000/svg" xmlns:xlink="http://www.w3.org/1999/xlink" width="45.598" height="46" viewBox="0 0 45.598 46"><defs><linearGradient id="a" x1="0.095" x2="0.283" y2="0.909" gradientUnits="objectBoundingBox"><stop offset="0" stop-color="#fff"/><stop offset="1" stop-color="#fff" stop-opacity="0"/></linearGradient><linearGradient id="b" x1="0.931" y1="1" x2="0.727" y2="0.091" xlink:href="#a"/><linearGradient id="c" x1="0" y1="0.94" x2="0.937" y2="0.766" xlink:href="#a"/><linearGradient id="d" x1="0.992" y1="0.04" x2="0.079" y2="0.268" xlink:href="#a"/></defs><g transform="translate(-56.483 -311.07)"><g transform="translate(56.483 311.07)"><path d="M232.123,379.289l-.418-3.212a14.6,14.6,0,0,0-3.146-28.849c-.205,0-.409.005-.612.014l0-.027c-.054.005-.109.008-.164.008a1.612,1.612,0,1,1,.184-3.212c.2-.007.4-.011.595-.011a17.825,17.825,0,0,1,3.564,35.289Z" transform="translate(-205.582 -338.846)" fill="url(#a)"/><path d="M67.416,347.006l.419,3.212a14.6,14.6,0,0,0,3.146,28.849c.205,0,.409-.005.612-.014l0,.026a1.612,1.612,0,1,1,.164,3.215,1.617,1.617,0,0,1-.184-.012c-.2.007-.4.012-.595.012a17.825,17.825,0,0,1-3.564-35.289Z" transform="translate(-48.354 -341.577)" fill="url(#b)"/><path d="M43.078,306.749a19.951,19.951,0,0,0-39.549,3.729q0,.278.008.554l-.022,0a1.489,1.489,0,1,1-2.961.321l-.034,0c-.011-.292-.019-.586-.019-.881a22.979,22.979,0,0,1,45.6-4.056l-3.02.327Z" transform="translate(-0.501 -287.5)" fill="url(#c)"/><path d="M3.526,521.452a19.951,19.951,0,0,0,39.549-3.729q0-.278-.008-.554l.022,0a1.526,1.526,0,0,1-.012-.177,1.49,1.49,0,0,1,2.973-.144l.034,0c.011.292.019.586.019.881a22.979,22.979,0,0,1-45.6,4.056l3.02-.327Z" transform="translate(-0.505 -494.701)" fill="url(#d)"/><path d="M152.619,436.3l-9.433,12.06a1.573,1.573,0,0,1-1.256.689v0l-.047,0-.047,0v0a1.574,1.574,0,0,1-1.256-.689l-9.433-12.06s-.712-1.368.785-1.368h2.789a.456.456,0,0,0,.456-.456v-6.112A1.368,1.368,0,0,1,136.545,427h10.673a1.368,1.368,0,0,1,1.368,1.368v3.1h0v3.01a.456.456,0,0,0,.456.456h2.792c1.5,0,.785,1.368.785,1.368Z" transform="translate(-119.076 -414.275)" fill="#fff"/></g></g></svg>